<svg preserveAspectRatio="none" width="100%" height="100%" overflow="visible" style="display: block;" viewBox="0 0 96 19.2836" fill="none" xmlns="http://www.w3.org/2000/svg">
<path id="Google Play" fill-rule="evenodd" clip-rule="evenodd" d="M74.6181 14.6679H76.7312V0.511843H74.6181V14.6679ZM93.6503 5.61102L91.2281 11.7486H91.1556L88.6417 5.61102H86.3656L90.1353 14.1889L87.986 18.9608H90.1908L96 5.61102H93.6503ZM81.6673 13.0599C80.9742 13.0599 80.0094 12.7145 80.0094 11.8584C80.0094 10.7657 81.212 10.3467 82.2493 10.3467C83.179 10.3467 83.615 10.5471 84.18 10.82C84.0159 12.1314 82.8869 13.0599 81.6673 13.0599ZM81.9221 5.30188C80.3922 5.30188 78.808 5.97565 78.1523 7.46928L80.0276 8.25177C80.4284 7.46928 81.1747 7.21336 81.9583 7.21336C83.0511 7.21336 84.1619 7.86902 84.18 9.03539V9.18033C83.7973 8.96178 82.9786 8.63452 81.9764 8.63452C79.9551 8.63452 77.8964 9.7454 77.8964 11.8211C77.8964 13.7156 79.5542 14.9363 81.4113 14.9363C82.8325 14.9363 83.615 14.2988 84.1076 13.5514H84.18V14.6441H86.2195V9.2177C86.2195 6.70378 84.3443 5.30188 81.9221 5.30188ZM68.8633 7.33453H65.8579V2.48221H68.8633C70.443 2.48221 71.3398 3.79013 71.3398 4.9078C71.3398 6.00509 70.443 7.33453 68.8633 7.33453ZM68.8089 0.511843H63.746V14.6679H65.8579V9.3049H68.8089C71.1507 9.3049 73.4529 7.60857 73.4529 4.9078C73.4529 2.20704 71.1507 0.511843 68.8089 0.511843ZM41.2 13.0622C39.7403 13.0622 38.5184 11.8403 38.5184 10.1621C38.5184 8.46579 39.7403 7.22468 41.2 7.22468C42.6415 7.22468 43.7716 8.46579 43.7716 10.1621C43.7716 11.8403 42.6415 13.0622 41.2 13.0622ZM43.6256 6.4037H43.5531C43.0786 5.83863 42.167 5.32792 41.0176 5.32792C38.609 5.32792 36.402 7.44324 36.402 10.1621C36.402 12.8618 38.609 14.9601 41.0176 14.9601C42.167 14.9601 43.0786 14.4494 43.5531 13.8651H43.6256V14.5581C43.6256 16.4016 42.6415 17.3868 41.0539 17.3868C39.7584 17.3868 38.9556 16.456 38.6272 15.6712L36.7848 16.4379C37.3136 17.7152 38.7189 19.2836 41.0539 19.2836C43.535 19.2836 45.6333 17.8239 45.6333 14.2671V5.61895H43.6256V6.4037ZM47.093 14.6679H49.2094V0.510711H47.093V14.6679ZM52.328 9.99792C52.2737 8.1374 53.7696 7.18845 54.8453 7.18845C55.6856 7.18845 56.3967 7.60744 56.6334 8.20987L52.328 9.99792ZM58.8959 8.39218C58.495 7.31641 57.2721 5.32792 54.7729 5.32792C52.2918 5.32792 50.2308 7.27904 50.2308 10.144C50.2308 12.8436 52.2737 14.9601 55.0095 14.9601C57.2177 14.9601 58.495 13.6103 59.0239 12.8255L57.3819 11.7305C56.835 12.5334 56.0864 13.0622 55.0095 13.0622C53.9338 13.0622 53.1671 12.5696 52.6745 11.6037L59.1145 8.94027L58.8959 8.39218ZM7.58932 6.8057V8.84854H12.4779C12.3318 9.99792 11.949 10.837 11.3659 11.4213C10.6536 12.1325 9.54044 12.9161 7.58932 12.9161C4.57941 12.9161 2.22516 10.4905 2.22516 7.48061C2.22516 4.46957 4.57941 2.04397 7.58932 2.04397C9.21317 2.04397 10.3988 2.68265 11.2741 3.50363L12.7157 2.06209C11.4927 0.894593 9.86996 0 7.58932 0C3.46626 0 0 3.35755 0 7.48061C0 11.6037 3.46626 14.9601 7.58932 14.9601C9.81448 14.9601 11.4927 14.2308 12.8063 12.8618C14.1561 11.5119 14.5762 9.61517 14.5762 8.08191C14.5762 7.60743 14.54 7.17033 14.4664 6.8057H7.58932ZM20.1351 13.0622C18.6755 13.0622 17.4163 11.8584 17.4163 10.144C17.4163 8.4103 18.6755 7.22468 20.1351 7.22468C21.5937 7.22468 22.8529 8.4103 22.8529 10.144C22.8529 11.8584 21.5937 13.0622 20.1351 13.0622ZM20.1351 5.32792C17.4706 5.32792 15.2998 7.35265 15.2998 10.144C15.2998 12.9161 17.4706 14.9601 20.1351 14.9601C22.7985 14.9601 24.9693 12.9161 24.9693 10.144C24.9693 7.35265 22.7985 5.32792 20.1351 5.32792ZM30.6811 13.0622C29.2215 13.0622 27.9623 11.8584 27.9623 10.144C27.9623 8.4103 29.2215 7.22468 30.6811 7.22468C32.1408 7.22468 33.3989 8.4103 33.3989 10.144C33.3989 11.8584 32.1408 13.0622 30.6811 13.0622ZM30.6811 5.32792C28.0177 5.32792 25.8469 7.35265 25.8469 10.144C25.8469 12.9161 28.0177 14.9601 30.6811 14.9601C33.3445 14.9601 35.5153 12.9161 35.5153 10.144C35.5153 7.35265 33.3445 5.32792 30.6811 5.32792Z" fill="var(--fill-0, white)"/>
</svg>
