<svg preserveAspectRatio="none" width="100%" height="100%" overflow="visible" style="display: block;" viewBox="0 0 46.788 57.6333" fill="none" xmlns="http://www.w3.org/2000/svg">
<g id="Bg">
<path id="Fill 1" d="M41.821 31.1592C39.9658 28.9927 39.1228 27.1153 39.1228 23.9257V22.8412C39.1228 18.6848 38.1662 16.0068 36.0863 13.3288C32.8808 9.16984 27.4843 6.6632 22.2014 6.6632H21.9767C16.8049 6.6632 11.5775 9.05474 8.31642 13.0449C6.123 15.7766 5.05531 18.5697 5.05531 22.8412V23.9257C5.05531 27.1153 4.2678 28.9927 2.35707 31.1592C0.951161 32.7552 0.501875 34.8066 0.501875 37.0267C0.501875 39.2494 1.23133 41.3545 2.6953 43.0657C4.60603 45.117 7.30427 46.4266 10.0606 46.6543C14.0511 47.1095 18.0417 47.2809 22.0903 47.2809C26.1364 47.2809 30.127 46.9944 34.1201 46.6543C36.8738 46.4266 39.5721 45.117 41.4828 43.0657C42.9443 41.3545 43.6762 39.2494 43.6762 37.0267C43.6762 34.8066 43.227 32.7552 41.821 31.1592" fill="var(--fill-0, #FA2E43)"/>
<path id="Fill 4" d="M27.19 50.5941C25.9204 50.3229 18.1841 50.3229 16.9145 50.5941C15.8292 50.8447 14.6555 51.4279 14.6555 52.7068C14.7186 53.9269 15.4329 55.0037 16.4223 55.6866L16.4198 55.6892C17.6995 56.6867 19.2013 57.3211 20.7738 57.5487C21.6118 57.6638 22.465 57.6587 23.3332 57.5487C24.9032 57.3211 26.405 56.6867 27.6848 55.6892L27.6822 55.6866C28.6717 55.0037 29.386 53.9269 29.4491 52.7068C29.4491 51.4279 28.2754 50.8447 27.19 50.5941" fill="var(--fill-0, #FA2E43)"/>
<g id="Fill 5" opacity="0.5" filter="url(#filter0_f_70_383)">
<path d="M32.5645 29.5678C31.7023 28.1345 31.3105 26.8924 31.3105 24.7822V24.0647C31.3105 21.3148 30.8659 19.543 29.8993 17.7713C28.4095 15.0197 25.9014 13.3613 23.4462 13.3613H23.3418C20.9382 13.3613 18.5087 14.9435 16.9931 17.5834C15.9737 19.3907 15.4775 21.2386 15.4775 24.0647V24.7822C15.4775 26.8924 15.1115 28.1345 14.2235 29.5678C13.5701 30.6238 13.3613 31.9809 13.3613 33.4498C13.3613 34.9203 13.7003 36.313 14.3807 37.4451C15.2687 38.8023 16.5227 39.6687 17.8037 39.8193C19.6584 40.1206 21.513 40.2339 23.3946 40.2339C25.275 40.2339 27.1296 40.0444 28.9854 39.8193C30.2653 39.6687 31.5193 38.8023 32.4073 37.4451C33.0865 36.313 33.4267 34.9203 33.4267 33.4498C33.4267 31.9809 33.2179 30.6238 32.5645 29.5678Z" fill="var(--fill-0, #FA2E43)"/>
</g>
</g>
<defs>
<filter id="filter0_f_70_383" x="0" y="0" width="46.788" height="53.5952" filterUnits="userSpaceOnUse" color-interpolation-filters="sRGB">
<feFlood flood-opacity="0" result="BackgroundImageFix"/>
<feBlend mode="normal" in="SourceGraphic" in2="BackgroundImageFix" result="shape"/>
<feGaussianBlur stdDeviation="6.68065" result="effect1_foregroundBlur_70_383"/>
</filter>
</defs>
</svg>
