<svg preserveAspectRatio="none" width="100%" height="100%" overflow="visible" style="display: block;" viewBox="0 0 278.05 475.316" fill="none" xmlns="http://www.w3.org/2000/svg">
<path id="fix" d="M77.6951 444.752C77.6951 444.752 95.967 473.351 104.229 475.099C112.491 476.847 228.637 467.473 241.665 466.837C254.694 466.201 267.405 460.005 269.788 457.145C272.171 454.285 275.985 446.976 276.779 444.116C277.574 441.256 278.05 429.499 278.05 429.499L192.57 44.9952C192.57 44.9952 188.915 34.0321 185.579 29.4244C182.242 24.8167 177.952 19.0969 171.597 15.4425C165.241 11.7881 158.727 10.1992 158.727 10.1992L27.6461 0.0305441C27.6461 0.0305441 13.0287 -0.763893 7.14988 5.75042C1.27111 12.2647 0 28.7889 0 28.7889L77.6951 444.752Z" fill="var(--fill-0, black)"/>
</svg>
