<svg preserveAspectRatio="none" width="100%" height="100%" overflow="visible" style="display: block;" viewBox="0 0 83.6364 72.7273" fill="none" xmlns="http://www.w3.org/2000/svg">
<foreignObject x="-10.9091" y="-12.7273" width="105.455" height="94.5455"><div xmlns="http://www.w3.org/1999/xhtml" style="backdrop-filter:blur(9.09px);clip-path:url(#bgblur_0_70_416_clip_path);height:100%;width:100%"></div></foreignObject><g id="glass" filter="url(#filter0_din_70_416)" data-figma-bg-blur-radius="18.1818">
<path d="M7.27273 20C7.27273 11.9668 13.7849 5.45455 21.8182 5.45455H61.8182C69.8514 5.45455 76.3636 11.9668 76.3636 20V49.0909C76.3636 57.1241 69.8514 63.6364 61.8182 63.6364H21.8182C13.7849 63.6364 7.27273 57.1241 7.27273 49.0909V20Z" fill="url(#paint0_linear_70_416)" shape-rendering="crispEdges"/>
<path d="M7.27273 20C7.27273 11.9668 13.7849 5.45455 21.8182 5.45455H61.8182C69.8514 5.45455 76.3636 11.9668 76.3636 20V49.0909C76.3636 57.1241 69.8514 63.6364 61.8182 63.6364H21.8182C13.7849 63.6364 7.27273 57.1241 7.27273 49.0909V20Z" fill="var(--fill-1, #FA2E43)" fill-opacity="0.25" shape-rendering="crispEdges"/>
<path d="M21.8186 5.63619H61.8186C69.7512 5.63643 76.1819 12.0678 76.1819 20.0004V49.0913C76.1817 57.0238 69.7511 63.4543 61.8186 63.4545H21.8186C13.8859 63.4545 7.45456 57.0239 7.45437 49.0913V20.0004C7.45437 12.0676 13.8858 5.63619 21.8186 5.63619Z" stroke="url(#paint1_linear_70_416)" stroke-width="0.363636" shape-rendering="crispEdges"/>
</g>
<defs>
<filter id="filter0_din_70_416" x="-10.9091" y="-12.7273" width="105.455" height="94.5455" filterUnits="userSpaceOnUse" color-interpolation-filters="sRGB">
<feFlood flood-opacity="0" result="BackgroundImageFix"/>
<feColorMatrix in="SourceAlpha" type="matrix" values="0 0 0 0 0 0 0 0 0 0 0 0 0 0 0 0 0 0 127 0" result="hardAlpha"/>
<feOffset dy="1.81818"/>
<feGaussianBlur stdDeviation="3.63636"/>
<feComposite in2="hardAlpha" operator="out"/>
<feColorMatrix type="matrix" values="0 0 0 0 0 0 0 0 0 0 0 0 0 0 0 0 0 0 0.12 0"/>
<feBlend mode="normal" in2="BackgroundImageFix" result="effect1_dropShadow_70_416"/>
<feBlend mode="normal" in="SourceGraphic" in2="BackgroundImageFix" result="shape"/>
<feColorMatrix in="SourceAlpha" type="matrix" values="0 0 0 0 0 0 0 0 0 0 0 0 0 0 0 0 0 0 127 0" result="hardAlpha"/>
<feOffset dy="1.81818"/>
<feGaussianBlur stdDeviation="2.72727"/>
<feComposite in2="hardAlpha" operator="arithmetic" k2="-1" k3="1"/>
<feColorMatrix type="matrix" values="0 0 0 0 1 0 0 0 0 1 0 0 0 0 1 0 0 0 0.1 0"/>
<feBlend mode="normal" in2="shape" result="effect2_innerShadow_70_416"/>
<feTurbulence type="fractalNoise" baseFrequency="5.5 5.5" stitchTiles="stitch" numOctaves="3" result="noise" seed="4151" />
<feColorMatrix in="noise" type="luminanceToAlpha" result="alphaNoise" />
<feComponentTransfer in="alphaNoise" result="coloredNoise1">
<feFuncA type="discrete" tableValues="0 0 0 0 0 0 0 1 1 1 1 1 1 1 1 1 1 1 1 1 1 1 1 1 1 1 1 1 1 1 1 1 1 1 1 1 1 1 1 1 1 1 1 0 0 0 0 0 0 0 0 0 0 0 0 0 0 0 0 0 0 0 0 0 0 0 0 0 0 0 0 0 0 0 0 0 0 0 0 0 0 0 0 0 0 0 0 0 0 0 0 0 0 0 0 0 0 0 0 0 "/>
</feComponentTransfer>
<feComposite operator="in" in2="effect2_innerShadow_70_416" in="coloredNoise1" result="noise1Clipped" />
<feFlood flood-color="rgba(0, 0, 0, 0.05)" result="color1Flood" />
<feComposite operator="in" in2="noise1Clipped" in="color1Flood" result="color1" />
<feMerge result="effect3_noise_70_416">
<feMergeNode in="effect2_innerShadow_70_416" />
<feMergeNode in="color1" />
</feMerge>
<feBlend mode="normal" in="effect3_noise_70_416" in2="effect1_dropShadow_70_416" result="effect3_noise_70_416"/>
</filter>
<clipPath id="bgblur_0_70_416_clip_path" transform="translate(10.9091 12.7273)"><path d="M7.27273 20C7.27273 11.9668 13.7849 5.45455 21.8182 5.45455H61.8182C69.8514 5.45455 76.3636 11.9668 76.3636 20V49.0909C76.3636 57.1241 69.8514 63.6364 61.8182 63.6364H21.8182C13.7849 63.6364 7.27273 57.1241 7.27273 49.0909V20Z"/>
</clipPath><linearGradient id="paint0_linear_70_416" x1="41.8182" y1="3.0303" x2="41.8182" y2="63.6364" gradientUnits="userSpaceOnUse">
<stop stop-color="white" stop-opacity="0.1"/>
<stop offset="1" stop-color="white" stop-opacity="0"/>
</linearGradient>
<linearGradient id="paint1_linear_70_416" x1="41.8182" y1="5.45455" x2="41.8182" y2="63.6364" gradientUnits="userSpaceOnUse">
<stop stop-color="white" stop-opacity="0.15"/>
<stop offset="1" stop-color="white" stop-opacity="0"/>
</linearGradient>
</defs>
</svg>
