<svg preserveAspectRatio="none" width="100%" height="100%" overflow="visible" style="display: block;" viewBox="0 0 26.6669 32.0002" fill="none" xmlns="http://www.w3.org/2000/svg">
<g id="Frame">
<path id="Shape" d="M19.7987 7.49023C21.9189 7.49034 24.1652 8.68175 25.7636 10.7363C20.5231 13.6979 21.3717 21.4144 26.6669 23.4785C25.9389 25.1417 25.5881 25.8852 24.6503 27.3584C23.342 29.4149 21.4969 31.9753 19.2089 31.9941C17.1782 32.0166 16.6544 30.6296 13.8974 30.6465C11.1404 30.6616 10.5656 32.0206 8.53115 32C6.24492 31.9793 4.49666 29.6688 3.18838 27.6123C-0.471925 21.866 -0.856817 15.1204 1.40029 11.5322C3.006 8.98461 5.5385 7.49417 7.91787 7.49414C10.3392 7.49414 11.8628 8.86418 13.8681 8.86426C15.8132 8.86426 16.9978 7.49023 19.7987 7.49023ZM19.1855 0C19.4646 1.94365 18.6929 3.84811 17.6747 5.19531C16.5854 6.64025 14.7077 7.75746 12.8886 7.69922C12.5565 5.83838 13.4067 3.92068 14.4413 2.63184C15.5763 1.20954 17.5215 0.118529 19.1855 0Z" fill="var(--fill-0, white)"/>
</g>
</svg>
