<svg width="32" height="32" viewBox="0 0 32 32" fill="none" xmlns="http://www.w3.org/2000/svg">
<path d="M22.4654 7.49023C24.5856 7.49034 26.8318 8.68175 28.4302 10.7363C23.1897 13.6979 24.0383 21.4144 29.3335 23.4785C28.6055 25.1417 28.2548 25.8852 27.3169 27.3584C26.0086 29.4149 24.1635 31.9753 21.8755 31.9941C19.8448 32.0166 19.321 30.6296 16.564 30.6465C13.807 30.6616 13.2322 32.0206 11.1978 32C8.91154 31.9793 7.16329 29.6688 5.85501 27.6123C2.1947 21.866 1.80981 15.1204 4.06692 11.5322C5.67263 8.98461 8.20513 7.49417 10.5845 7.49414C13.0058 7.49414 14.5294 8.86418 16.5347 8.86426C18.4798 8.86426 19.6645 7.49023 22.4654 7.49023ZM21.8521 0C22.1312 1.94365 21.3595 3.84811 20.3413 5.19531C19.252 6.64025 17.3743 7.75746 15.5552 7.69922C15.2232 5.83838 16.0734 3.92068 17.1079 2.63184C18.2429 1.20954 20.1881 0.118529 21.8521 0Z" fill="white"/>
</svg>
